<svg width="1188" height="845" viewBox="0 0 1188 845" fill="none" xmlns="http://www.w3.org/2000/svg">
<path d="M85.4666 1.46668C48.4 7.60001 17.4666 34.5333 4.93329 71.3333L1.33329 82L0.933293 418.133L0.666626 754.267L3.99996 767.333C14.2666 807.733 48.4 837.333 90.6666 842.533C107.067 844.533 1080.53 844.667 1096.53 842.667C1121.33 839.467 1140 830.267 1157.33 812.8C1173.07 796.8 1181.07 781.867 1185.33 760.667C1187.2 751.067 1187.33 717.733 1187.07 416.667L1186.67 83.3333L1182.93 72.6667C1171.47 38.9333 1148.4 15.8667 1114.67 4.26668L1104 0.666676L598 0.533342C319.733 0.400009 89.0666 0.800009 85.4666 1.46668ZM1084 65.2C1082.53 66.5333 1040 103.867 989.333 148C938.8 192.267 829.333 287.867 746.267 360.533C633.733 458.933 593.067 493.867 586.667 497.2C570.933 505.6 550.8 504.133 537.733 493.6C532.8 489.733 96.6666 64.1333 96.6666 63.2C96.6666 62.9333 319.467 62.6667 591.6 62.6667C1078 62.6667 1086.53 62.6667 1084 65.2ZM1124.4 579.333L1124 734.667L977.467 557.333C896.933 459.733 829.867 378.533 828.533 376.8L826 373.6L975.067 243.467L1124 113.333L1124.4 268.667C1124.53 354.133 1124.53 493.867 1124.4 579.333ZM199.2 251.2C273.467 323.6 334 383.467 333.733 384.133C333.2 385.733 64.1333 711.733 63.3333 711.867C62.9333 712 62.6666 578.533 62.6666 415.333C62.6666 252.133 63.0666 118.8 63.4666 118.933C63.8666 119.2 124.933 178.667 199.2 251.2ZM930.667 598.667L1080.93 780.667L592 781.067C323.067 781.2 100.267 780.933 97.0666 780.4C93.7333 779.733 90.9333 778.8 90.8 778.267C90.6666 777.067 378.133 428.267 379.467 428.133C379.867 428 405.467 452.667 436.533 482.933C467.467 513.2 496.267 540.533 500.4 543.733C536.933 572.133 592.667 572.133 630.667 543.6C635.067 540.267 670.133 510 708.667 476.267C747.2 442.533 779.067 415.333 779.6 415.733C780 416.267 848 498.533 930.667 598.667Z" fill="black"/>
</svg>
